<svg xmlns="http://www.w3.org/2000/svg" xmlns:xlink="http://www.w3.org/1999/xlink" width="1080" zoomAndPan="magnify" viewBox="0 0 810 809.999993" height="1080" preserveAspectRatio="xMidYMid meet" version="1.0"><defs><clipPath id="051b598383"><path d="M 20.667969 20.667969 L 788.667969 20.667969 L 788.667969 788.667969 L 20.667969 788.667969 Z M 20.667969 20.667969 " clip-rule="nonzero"/></clipPath></defs><g clip-path="url(#051b598383)"><path fill="#779ecb" d="M 631.667969 20.667969 L 177.953125 20.667969 C 91.226562 20.667969 20.667969 91.226562 20.667969 177.953125 L 20.667969 631.667969 C 20.667969 718.394531 91.226562 788.949219 177.953125 788.949219 L 631.667969 788.949219 C 718.394531 788.949219 788.949219 718.394531 788.949219 631.667969 L 788.949219 177.953125 C 788.949219 91.226562 718.394531 20.667969 631.667969 20.667969 Z M 743.757812 631.667969 C 743.757812 693.472656 693.472656 743.757812 631.667969 743.757812 L 177.953125 743.757812 C 116.148438 743.757812 65.863281 693.472656 65.863281 631.667969 L 65.863281 177.953125 C 65.863281 116.148438 116.148438 65.863281 177.953125 65.863281 L 631.667969 65.863281 C 693.472656 65.863281 743.757812 116.148438 743.757812 177.953125 Z M 743.757812 631.667969 " fill-opacity="1" fill-rule="nonzero"/></g><path fill="#779ecb" d="M 254.167969 325.910156 L 163.78125 325.910156 C 151.300781 325.910156 141.183594 336.027344 141.183594 348.507812 L 141.183594 643.015625 C 141.183594 655.492188 151.300781 665.609375 163.78125 665.609375 L 254.167969 665.609375 C 266.644531 665.609375 276.761719 655.492188 276.761719 643.015625 L 276.761719 348.507812 C 276.761719 336.027344 266.644531 325.910156 254.167969 325.910156 Z M 231.570312 620.417969 L 186.375 620.417969 L 186.375 371.101562 L 231.570312 371.101562 Z M 231.570312 620.417969 " fill-opacity="1" fill-rule="nonzero"/><path fill="#779ecb" d="M 457.535156 366.179688 L 457.535156 348.507812 C 457.535156 336.027344 447.417969 325.910156 434.9375 325.910156 L 344.550781 325.910156 C 332.074219 325.910156 321.957031 336.027344 321.957031 348.507812 L 321.957031 643.015625 C 321.957031 655.492188 332.074219 665.609375 344.550781 665.609375 L 434.9375 665.609375 C 447.417969 665.609375 457.535156 655.492188 457.535156 643.015625 L 457.535156 535.304688 C 457.535156 514.539062 474.429688 497.644531 495.195312 497.644531 C 515.960938 497.644531 532.855469 514.539062 532.855469 535.304688 L 532.855469 643.015625 C 532.855469 655.492188 542.972656 665.609375 555.453125 665.609375 L 645.839844 665.609375 C 658.320312 665.609375 668.4375 655.492188 668.4375 643.015625 L 668.4375 535.304688 C 668.4375 424.941406 565.824219 342.042969 457.535156 366.179688 Z M 623.242188 620.417969 L 578.050781 620.417969 L 578.050781 535.304688 C 578.050781 489.617188 540.882812 452.449219 495.195312 452.449219 C 449.511719 452.449219 412.34375 489.617188 412.34375 535.304688 L 412.34375 620.417969 L 367.148438 620.417969 L 367.148438 371.101562 L 412.34375 371.101562 L 412.34375 397.253906 C 412.34375 413.542969 429.089844 424.476562 444.007812 417.949219 C 527.789062 381.238281 623.242188 442.675781 623.242188 535.304688 Z M 623.242188 620.417969 " fill-opacity="1" fill-rule="nonzero"/><path fill="#779ecb" d="M 208.972656 144.007812 C 171.59375 144.007812 141.183594 174.417969 141.183594 211.796875 C 141.183594 249.175781 171.59375 279.585938 208.972656 279.585938 C 246.351562 279.585938 276.761719 249.175781 276.761719 211.796875 C 276.761719 174.417969 246.351562 144.007812 208.972656 144.007812 Z M 208.972656 234.394531 C 196.511719 234.394531 186.375 224.257812 186.375 211.796875 C 186.375 199.339844 196.511719 189.203125 208.972656 189.203125 C 221.433594 189.203125 231.570312 199.339844 231.570312 211.796875 C 231.570312 224.257812 221.433594 234.394531 208.972656 234.394531 Z M 208.972656 234.394531 " fill-opacity="1" fill-rule="nonzero"/></svg>